<svg width="235" height="57" viewBox="0 0 235 57" fill="none" xmlns="http://www.w3.org/2000/svg">
<g clip-path="url(#clip0_881_8614)">
<path d="M23.5452 10.9261C23.4032 10.7278 23.1071 10.7278 22.9651 10.9261C19.8303 15.2863 12.9688 25.6556 12.9688 32.8872C12.9688 37.2297 14.0403 40.7966 16.071 43.2002C17.5421 44.9408 19.4573 46.0153 21.6774 46.3557V42.2412L18.0453 39.9915C17.3053 39.5327 17.03 38.5617 17.474 37.8158C17.9181 37.0698 18.9127 36.8153 19.6616 37.28L21.6745 38.5292V35.2198L18.0424 32.9701C17.3024 32.5113 17.0271 31.5403 17.4711 30.7944C17.9151 30.0484 18.9097 29.7939 19.6586 30.2586L21.6715 31.5078V28.1984L18.0394 25.9487C17.2994 25.4899 17.0241 24.5189 17.4681 23.773C17.9121 23.027 18.9067 22.7725 19.6557 23.2372L21.6685 24.4864V20.5701C21.6685 19.6999 22.3494 18.9539 23.2167 18.9391C24.084 18.9243 24.824 19.6348 24.824 20.5169V24.4864L26.8369 23.2402C27.5858 22.7754 28.5745 23.0152 29.0244 23.776C29.4744 24.5367 29.1931 25.4958 28.4531 25.9516L24.8211 28.2013V31.5107L26.8339 30.2645C27.5828 29.7998 28.5715 30.0396 29.0215 30.8003C29.4655 31.5463 29.1902 32.5201 28.4502 32.976L24.8181 35.2257V38.5351L26.831 37.2889C27.5799 36.8242 28.5686 37.0639 29.0185 37.8247C29.4684 38.5854 29.1872 39.5415 28.4472 40.0004L24.8151 42.25V46.3646C27.0323 46.0242 28.9504 44.9497 30.4216 43.2091C32.4522 40.8055 33.5238 37.2415 33.5238 32.8961C33.5238 25.6615 26.6622 15.2923 23.5275 10.935L23.5452 10.9261Z" fill="#22B789"/>
<path d="M46.1449 0H25.1902C24.9919 0 24.832 0.159846 24.832 0.358174V7.35293C25.8562 8.68794 28.9081 12.7995 31.661 17.7755L46.3254 9.30957C46.4379 9.24444 46.506 9.12604 46.506 8.99875V0.358174C46.506 0.159846 46.3462 0 46.1478 0H46.1449Z" fill="#FFC95E"/>
<path d="M45.9679 13.1637L33.127 20.5788C35.1132 24.6282 36.6643 28.9885 36.6969 32.7715L46.3261 27.2124C46.4386 27.1473 46.5067 27.0289 46.5067 26.9016V13.4715C46.5067 13.1962 46.2077 13.0216 45.9679 13.1607V13.1637Z" fill="#98D6D6"/>
<path d="M45.9673 31.0518L36.4505 36.5458C35.9561 40.0358 34.7366 42.9929 32.851 45.2249C30.7937 47.6581 27.9905 49.1529 24.832 49.5259V56.6302C24.832 56.9055 25.131 57.0801 25.3708 56.941L46.3284 44.843C46.4409 44.7779 46.509 44.6595 46.509 44.5322V31.3626C46.509 31.0873 46.21 30.9127 45.9702 31.0518H45.9673Z" fill="#22B789"/>
<path d="M13.655 45.2366C11.7694 43.0047 10.5469 40.0445 10.0555 36.5575L0.538741 31.0635C0.298972 30.9244 0 31.0991 0 31.3744V44.5439C0 44.6712 0.0680827 44.7896 0.180567 44.8547L21.1382 56.9527C21.378 57.0918 21.6769 56.9172 21.6769 56.6419V49.5376C18.5214 49.1647 15.7153 47.6728 13.658 45.2366H13.655Z" fill="#22B789"/>
<path d="M13.3797 20.5758L0.538741 13.1636C0.298972 13.0245 0 13.1992 0 13.4745V26.8986C0 27.0259 0.0680827 27.1443 0.180567 27.2094L9.80982 32.7685C9.84239 28.9855 11.3935 24.6252 13.3797 20.5758Z" fill="#F68740"/>
<path d="M21.674 7.35293V0.358174C21.674 0.159846 21.5141 0 21.3158 0H0.358174C0.159846 0 0 0.159846 0 0.358174V8.99875C0 9.12604 0.0680827 9.24444 0.180567 9.30957L14.845 17.7755C17.5979 12.7995 20.6527 8.68794 21.674 7.35293Z" fill="#F26F65"/>
<path d="M69.1633 8.95728H64.0956L60.1143 37.4247H77.2859L77.9282 32.8395H65.8243L69.1633 8.95728Z" fill="#FFFAF2"/>
<path d="M91.2371 17.6421C89.7896 17.6421 88.3895 17.8848 87.0367 18.3644C85.6839 18.8469 84.4703 19.5306 83.3987 20.4157C82.3272 21.3008 81.4273 22.3664 80.705 23.6126C79.9828 24.8589 79.5121 26.2471 79.299 27.7746C79.0829 29.302 79.1628 30.6903 79.5387 31.9365C79.9147 33.1827 80.5097 34.2483 81.3266 35.1334C82.1436 36.0185 83.1619 36.7023 84.3815 37.1848C85.6011 37.6673 86.9361 37.91 88.3836 37.91C89.911 37.91 91.4118 37.614 92.8859 37.0249C94.36 36.4359 95.7543 35.4442 97.0686 34.05L93.9723 31.4362C93.2737 32.1881 92.4774 32.8097 91.5805 33.307C90.6836 33.8043 89.6298 34.05 88.425 34.05C87.756 34.05 87.1374 33.9435 86.5749 33.7274C86.0125 33.5142 85.53 33.2123 85.1274 32.8216C84.7249 32.4338 84.4111 31.9572 84.1832 31.3948C83.9552 30.8324 83.8546 30.19 83.8812 29.4648H98.5989L98.8002 28.1387C99.2561 24.7612 98.7854 22.1681 97.3942 20.3595C95.9999 18.5508 93.9486 17.6451 91.243 17.6451L91.2371 17.6421ZM94.292 25.8446H84.3992C84.7752 24.4504 85.4442 23.3374 86.4092 22.5085C87.3742 21.6767 88.5789 21.2623 90.0264 21.2623C91.5539 21.2623 92.6935 21.6708 93.4454 22.4878C94.1943 23.3048 94.4755 24.4237 94.289 25.8446H94.292Z" fill="#FFFAF2"/>
<path d="M118.097 20.9575C117.857 20.3269 117.461 19.7704 116.91 19.2879C116.36 18.8054 115.637 18.4118 114.737 18.1009C113.84 17.7931 112.707 17.6392 111.339 17.6392C109.812 17.6392 108.29 17.8819 106.775 18.3614C105.259 18.8439 103.9 19.6343 102.693 20.7325L104.865 23.2663C105.588 22.6506 106.419 22.1593 107.358 21.7981C108.296 21.437 109.273 21.2564 110.294 21.2564C111.582 21.2564 112.6 21.5584 113.349 22.1622C114.098 22.7661 114.379 23.6689 114.193 24.8766L114.151 25.4006H112.947C111.742 25.4006 110.419 25.4539 108.986 25.5604C107.55 25.667 106.192 25.9482 104.904 26.4041C103.616 26.8599 102.506 27.5378 101.568 28.4347C100.629 29.3316 100.052 30.5601 99.8391 32.1141C99.703 33.0791 99.7859 33.9228 100.079 34.648C100.375 35.3732 100.816 35.9741 101.405 36.4566C101.994 36.9391 102.699 37.3003 103.516 37.543C104.333 37.7857 105.185 37.9041 106.07 37.9041C107.358 37.9041 108.569 37.6555 109.708 37.1611C110.848 36.6638 111.845 35.8676 112.704 34.7694H112.825L112.464 37.4216H116.807L118.334 26.3241C118.387 25.8683 118.446 25.3384 118.515 24.7346C118.58 24.1307 118.589 23.5091 118.535 22.8638C118.482 22.2214 118.334 21.585 118.094 20.9545L118.097 20.9575ZM113.231 29.8644C113.044 31.232 112.494 32.3095 111.582 33.1028C110.67 33.8932 109.383 34.2898 107.722 34.2898C107.319 34.2898 106.932 34.2425 106.556 34.1477C106.18 34.053 105.845 33.8991 105.549 33.686C105.253 33.4728 105.025 33.2094 104.865 32.9015C104.706 32.5937 104.649 32.2118 104.706 31.756C104.812 31.0603 105.147 30.5157 105.712 30.1279C106.274 29.7401 106.938 29.4441 107.701 29.2428C108.465 29.0415 109.27 28.9142 110.114 28.861C110.957 28.8077 111.715 28.781 112.384 28.781H113.391L113.231 29.8674V29.8644Z" fill="#FFFAF2"/>
<path d="M150.504 21.0196H150.424C149.888 19.8415 149.071 18.983 147.973 18.4472C146.875 17.9115 145.641 17.6421 144.273 17.6421C142.772 17.6421 141.399 17.9026 140.152 18.4265C138.906 18.9505 137.808 19.6668 136.855 20.5785C135.902 21.4902 135.12 22.5618 134.502 23.7962C133.886 25.0305 133.483 26.3567 133.297 27.7775C133.107 29.1451 133.161 30.4328 133.457 31.6375C133.753 32.8423 134.253 33.8902 134.963 34.7752C135.674 35.6603 136.586 36.3648 137.699 36.8858C138.812 37.4097 140.09 37.6702 141.538 37.6702C142.743 37.6702 143.95 37.4364 145.155 36.9657C146.36 36.498 147.381 35.7935 148.21 34.8552H148.29L148.13 36.2612C147.994 37.2262 147.769 38.1054 147.446 38.8957C147.124 39.6861 146.688 40.3639 146.141 40.9264C145.59 41.4888 144.9 41.9328 144.069 42.2525C143.237 42.5752 142.245 42.735 141.094 42.735C139.726 42.735 138.554 42.4923 137.574 42.0127C136.594 41.5302 135.692 40.8464 134.86 39.9614L131.402 43.9013C132.607 45.109 133.984 45.9378 135.523 46.3937C137.065 46.8496 138.732 47.0775 140.528 47.0775C142.325 47.0775 144.066 46.8081 145.513 46.2723C146.961 45.7366 148.201 44.9788 149.231 43.999C150.261 43.0192 151.093 41.8292 151.724 40.4202C152.354 39.0141 152.789 37.4364 153.029 35.6958L155.483 18.1246H150.898L150.495 21.0196H150.504ZM149.577 27.6532C149.444 28.4584 149.196 29.2073 148.834 29.9059C148.473 30.6044 148.012 31.1994 147.446 31.6938C146.884 32.1911 146.227 32.5848 145.475 32.8808C144.723 33.1768 143.906 33.3218 143.024 33.3218C142.219 33.3218 141.487 33.1738 140.833 32.8808C140.176 32.5877 139.634 32.1851 139.205 31.676C138.776 31.1669 138.462 30.5778 138.261 29.9059C138.06 29.2369 138.012 28.5116 138.119 27.7361C138.225 26.8777 138.474 26.0932 138.862 25.3828C139.25 24.6724 139.726 24.0685 140.289 23.5742C140.851 23.0769 141.502 22.6891 142.239 22.4079C142.976 22.1267 143.773 21.9846 144.631 21.9846C146.401 21.9846 147.721 22.5085 148.592 23.5534C149.462 24.5984 149.791 25.9659 149.577 27.6562V27.6532Z" fill="#FFFAF2"/>
<path d="M169.842 28.6598C169.762 29.3021 169.594 29.9208 169.339 30.5099C169.085 31.0989 168.75 31.6229 168.333 32.0787C167.918 32.5346 167.415 32.8957 166.826 33.1651C166.237 33.4344 165.538 33.5677 164.736 33.5677C163.878 33.5677 163.241 33.3723 162.827 32.9845C162.412 32.5967 162.128 32.1142 161.983 31.537C161.835 30.9598 161.782 30.3441 161.823 29.6869C161.862 29.0298 161.924 28.4348 162.004 27.899L163.372 18.1277H158.547L156.818 30.3115C156.685 31.3032 156.679 32.2563 156.797 33.1651C156.919 34.0768 157.206 34.8879 157.661 35.5983C158.117 36.3087 158.769 36.8711 159.612 37.2885C160.456 37.7029 161.521 37.9131 162.809 37.9131C164.416 37.9131 165.746 37.5579 166.791 36.8475C167.835 36.137 168.641 35.2993 169.203 34.3343H169.283L168.88 37.4306H173.466L176.159 18.1306H171.334L169.845 28.6657L169.842 28.6598Z" fill="#FFFAF2"/>
<path d="M195.015 20.9575C194.775 20.3269 194.379 19.7704 193.828 19.2879C193.278 18.8054 192.555 18.4118 191.655 18.1009C190.758 17.7931 189.625 17.6392 188.257 17.6392C186.73 17.6392 185.208 17.8819 183.693 18.3614C182.177 18.8439 180.818 19.6343 179.611 20.7325L181.783 23.2663C182.506 22.6506 183.337 22.1593 184.276 21.7981C185.214 21.437 186.191 21.2564 187.212 21.2564C188.5 21.2564 189.518 21.5584 190.267 22.1622C191.016 22.7661 191.297 23.6689 191.111 24.8766L191.069 25.4006H189.864C188.66 25.4006 187.337 25.4539 185.904 25.5604C184.468 25.667 183.11 25.9482 181.822 26.4041C180.534 26.8599 179.424 27.5378 178.486 28.4347C177.547 29.3316 176.97 30.5601 176.757 32.1141C176.621 33.0791 176.704 33.9228 176.997 34.648C177.293 35.3732 177.734 35.9741 178.323 36.4566C178.912 36.9391 179.617 37.3003 180.434 37.543C181.251 37.7857 182.103 37.9041 182.988 37.9041C184.276 37.9041 185.486 37.6555 186.626 37.1611C187.766 36.6638 188.763 35.8676 189.622 34.7694H189.743L189.382 37.4216H193.725L195.252 26.3241C195.305 25.8683 195.364 25.3384 195.432 24.7346C195.498 24.1307 195.506 23.5091 195.453 22.8638C195.4 22.2214 195.252 21.585 195.012 20.9545L195.015 20.9575ZM190.149 29.8644C189.962 31.232 189.412 32.3095 188.5 33.1028C187.588 33.8932 186.301 34.2898 184.64 34.2898C184.237 34.2898 183.85 34.2425 183.474 34.1477C183.098 34.053 182.763 33.8991 182.467 33.686C182.171 33.4728 181.943 33.2094 181.783 32.9015C181.624 32.5937 181.567 32.2118 181.624 31.756C181.73 31.0603 182.065 30.5157 182.63 30.1279C183.192 29.7401 183.855 29.4441 184.619 29.2428C185.383 29.0415 186.188 28.9142 187.032 28.861C187.875 28.8077 188.633 28.781 189.302 28.781H190.309L190.149 29.8674V29.8644Z" fill="#FFFAF2"/>
<path d="M212.383 17.9235C212.086 17.8436 211.805 17.7755 211.539 17.7223C211.27 17.669 210.988 17.6423 210.695 17.6423C209.408 17.6423 208.224 17.9502 207.137 18.5659C206.051 19.1816 205.16 20.0548 204.464 21.1797H204.384L204.825 18.1248H200L197.307 37.4248H202.132L203.579 27.091C203.606 26.8246 203.712 26.422 203.902 25.8863C204.088 25.3505 204.405 24.8147 204.846 24.2789C205.287 23.7431 205.885 23.2666 206.634 22.8521C207.383 22.4377 208.324 22.2305 209.449 22.2305C209.825 22.2305 210.198 22.2631 210.574 22.3312C210.95 22.3992 211.323 22.4851 211.699 22.5916L212.383 17.9265V17.9235Z" fill="#FFFAF2"/>
<path d="M133.484 19.0039V18.1218H129.636L130.118 14.6229C130.198 14.0871 130.305 13.578 130.441 13.0955C130.574 12.613 130.775 12.1897 131.045 11.8285C131.311 11.4674 131.666 11.1803 132.11 10.9642C132.551 10.7511 133.108 10.6415 133.78 10.6415C134.129 10.6415 134.464 10.6682 134.786 10.7215C135.109 10.7747 135.429 10.8428 135.751 10.9228L136.636 6.82003C135.725 6.63354 134.718 6.53882 133.62 6.53882C132.119 6.53882 130.873 6.74603 129.881 7.1634C128.89 7.58078 128.079 8.17576 127.448 8.95131C126.818 9.72982 126.335 10.6593 126.001 11.7457C125.666 12.832 125.403 14.0457 125.216 15.3836L124.814 18.1188H124.151C122.247 18.1188 120.705 19.661 120.705 21.5644V22.4465H124.219L122.12 37.4217H126.945L129.044 22.4465H130.041C131.945 22.4465 133.487 20.9043 133.487 19.0009L133.484 19.0039Z" fill="#FFFAF2"/>
<path d="M131.018 39.9585H62.0737C60.0017 39.9585 58.3203 41.6398 58.3203 43.7119V44.6828H124.852C127.365 44.6828 127.466 44.6828 127.466 44.6828C127.673 44.4668 131.864 39.9615 131.867 39.9585H131.021H131.018Z" fill="#FFFAF2"/>
<path d="M229.616 8.95728L227.985 20.5787H227.864C227.648 20.256 227.381 19.9304 227.059 19.593C226.736 19.2585 226.333 18.9447 225.851 18.6487C225.368 18.3527 224.791 18.1129 224.122 17.9264C223.453 17.7399 222.66 17.6452 221.748 17.6452C220.381 17.6452 219.087 17.9057 217.867 18.4296C216.648 18.9536 215.562 19.6699 214.611 20.5817C213.658 21.4934 212.862 22.5649 212.22 23.7993C211.577 25.0337 211.16 26.3598 210.973 27.7807C210.757 29.2015 210.784 30.5276 211.053 31.762C211.32 32.9964 211.802 34.0679 212.501 34.9797C213.199 35.8914 214.096 36.6077 215.195 37.1317C216.293 37.6556 217.592 37.9161 219.096 37.9161C220.464 37.9161 221.769 37.6467 223.015 37.1109C224.261 36.5752 225.327 35.7167 226.212 34.5386H226.292L225.889 37.4336H230.475L234.438 8.96616H229.613L229.616 8.95728ZM227.142 27.7747C227.035 28.5266 226.807 29.2489 226.458 29.9445C226.108 30.6431 225.653 31.2588 225.09 31.7946C224.528 32.3304 223.871 32.7596 223.119 33.0822C222.367 33.4049 221.55 33.5647 220.665 33.5647C219.78 33.5647 219.01 33.4049 218.353 33.0822C217.696 32.7596 217.16 32.3333 216.746 31.7946C216.331 31.2588 216.041 30.6431 215.881 29.9445C215.721 29.2489 215.695 28.5236 215.801 27.7747C215.908 27.0258 216.145 26.3006 216.506 25.602C216.867 24.9064 217.329 24.2877 217.894 23.7519C218.457 23.2162 219.108 22.7869 219.845 22.4643C220.582 22.1416 221.393 21.9818 222.278 21.9818C223.163 21.9818 223.933 22.1416 224.59 22.4643C225.247 22.7869 225.783 23.2162 226.197 23.7519C226.612 24.2877 226.902 24.9034 227.062 25.602C227.221 26.3006 227.248 27.0229 227.142 27.7747Z" fill="#FFFAF2"/>
<path d="M230.406 39.9587H154.917C154.731 40.5123 154.53 41.054 154.299 41.569C153.787 42.7176 152.413 44.6831 152.413 44.6831L226.653 44.689C228.725 44.689 230.406 43.0077 230.406 40.9356V39.9617V39.9587Z" fill="#FFFAF2"/>
</g>
<defs>
<clipPath id="clip0_881_8614">
<rect width="234.441" height="57" fill="white"/>
</clipPath>
</defs>
</svg>
